HIERARCHY
ROOT SpineBase
{
  OFFSET 0.000000 0.000000 0.000000
  CHANNELS 6 Xposition Yposition Zposition Zrotation Xrotation Yrotation
  JOINT SpineMid
  {
    OFFSET -0.000000 26.388254 0.000000
    CHANNELS 3 Zrotation Xrotation Yrotation
    JOINT SpineShoulder
    {
      OFFSET 0.381770 19.225661 -0.908206
      CHANNELS 3 Zrotation Xrotation Yrotation
      JOINT Neck
      {
        OFFSET 0.116518 6.209628 -0.658741
        CHANNELS 3 Zrotation Xrotation Yrotation
        JOINT Head
        {
          OFFSET -0.551599 10.559983 3.600478
          CHANNELS 3 Zrotation Xrotation Yrotation
          End Site
          {
            OFFSET 0 0 0
          }
        }
      }
      JOINT ShoulderLeft
      {
        OFFSET 2.247694 -5.150311 -7.874026
        CHANNELS 3 Zrotation Xrotation Yrotation
        JOINT ElbowLeft
        {
          OFFSET 3.296494 -20.892700 -6.618157
          CHANNELS 3 Zrotation Xrotation Yrotation
          JOINT WristLeft
          {
            OFFSET 4.204187 -21.869718 -9.098207
            CHANNELS 3 Zrotation Xrotation Yrotation
            JOINT HandLeft
            {
              OFFSET 0.821587 -5.129569 3.111316
              CHANNELS 3 Zrotation Xrotation Yrotation
              JOINT HandTipLeft
              {
                OFFSET 1.527281 -7.766653 -0.468487
                CHANNELS 3 Zrotation Xrotation Yrotation
                End Site
                {
                  OFFSET 0 0 0
                }
              }
              JOINT ThumbLeft
              {
                OFFSET 1.898953 0.421565 -3.958676
                CHANNELS 3 Zrotation Xrotation Yrotation
                End Site
                {
                  OFFSET 0 0 0
                }
              }
            }
          }
        }
      }
      JOINT ShoulderRight
      {
        OFFSET 10.576160 -1.791611 10.953794
        CHANNELS 3 Zrotation Xrotation Yrotation
        JOINT ElbowRight
        {
          OFFSET -0.404905 -17.582249 -16.102117
          CHANNELS 3 Zrotation Xrotation Yrotation
          JOINT WristRight
          {
            OFFSET -0.023099 -20.952364 -9.178176
            CHANNELS 3 Zrotation Xrotation Yrotation
            JOINT HandRight
            {
              OFFSET 0.375856 -6.889501 -2.115050
              CHANNELS 3 Zrotation Xrotation Yrotation
              JOINT HandTipRight
              {
                OFFSET 0.156099 -7.136412 -2.657331
                CHANNELS 3 Zrotation Xrotation Yrotation
                End Site
                {
                  OFFSET 0 0 0
                }
              }
              JOINT ThumbRight
              {
                OFFSET -3.090668 -1.209194 -0.665942
                CHANNELS 3 Zrotation Xrotation Yrotation
                End Site
                {
                  OFFSET 0 0 0
                }
              }
            }
          }
        }
      }
    }
  }
  JOINT HipLeft
  {
    OFFSET -1.904467 -0.040253 -0.677560
    CHANNELS 3 Zrotation Xrotation Yrotation
    JOINT KneeLeft
    {
      OFFSET 4.997340 -33.059138 1.780687
      CHANNELS 3 Zrotation Xrotation Yrotation
      JOINT AnkleLeft
      {
        OFFSET -3.381588 -30.635244 17.573319
        CHANNELS 3 Zrotation Xrotation Yrotation
        JOINT FootLeft
        {
          OFFSET 4.052959 -6.155536 -2.241465
          CHANNELS 3 Zrotation Xrotation Yrotation
          End Site
          {
            OFFSET 0 0 0
          }
        }
      }
    }
  }
  JOINT HipRight
  {
    OFFSET 2.788555 0.112440 -6.778223
    CHANNELS 3 Zrotation Xrotation Yrotation
    JOINT KneeRight
    {
      OFFSET -0.036398 -31.794535 4.547998
      CHANNELS 3 Zrotation Xrotation Yrotation
      JOINT AnkleRight
      {
        OFFSET 0.613531 -31.081579 20.273808
        CHANNELS 3 Zrotation Xrotation Yrotation
        JOINT FootRight
        {
          OFFSET 8.421758 -2.275499 -6.495094
          CHANNELS 3 Zrotation Xrotation Yrotation
          End Site
          {
            OFFSET 0 0 0
          }
        }
      }
    }
  }
}
MOTION
Frames: 5
Frame Time: 0.033333
6.011784 69.890172 333.055345 0.000000 0.000000 52.430205 -0.000000 0.000000 -52.430205 -0.000000 0.000000 0.000000 -0.000000 0.000000 0.000000 0.000000 0.000000 0.000000 -0.000000 0.000000 0.000000 -0.000000 0.000000 0.000000 -0.000000 0.000000 0.000000 -0.000000 0.000000 0.000000 0.000000 0.000000 0.000000 0.000000 0.000000 0.000000 -0.000000 0.000000 0.000000 -0.000000 0.000000 0.000000 -0.000000 0.000000 0.000000 -0.000000 0.000000 0.000000 0.000000 0.000000 0.000000 0.000000 0.000000 0.000000 -0.000000 0.000000 -52.430205 -0.000000 0.000000 0.000000 -0.000000 0.000000 0.000000 0.000000 0.000000 0.000000 -0.000000 0.000000 -52.430205 -0.000000 0.000000 0.000000 -0.000000 0.000000 0.000000 0.000000 0.000000 0.000000
8.266376 68.660930 334.143933 2.832358 -2.006024 62.453789 0.553991 0.670799 -62.279596 -0.378246 0.160247 0.103154 -2.717069 0.172172 -0.058013 0.000000 0.000000 0.000000 -7.588539 -2.876829 0.816133 9.884508 -5.778450 -5.077579 1.393579 6.640617 6.660522 -3.202705 -6.138419 -5.100399 0.000000 0.000000 0.000000 0.000000 0.000000 0.000000 -0.884844 -2.015427 -1.304091 1.550032 -0.497515 -0.169562 -1.475723 -6.198752 0.437991 4.338443 2.050883 -1.849747 0.000000 0.000000 0.000000 0.000000 0.000000 0.000000 0.014893 7.715193 -62.350257 3.278147 -1.202778 -0.441931 4.271451 3.236459 1.395726 0.000000 0.000000 0.000000 0.907897 1.714561 -62.189918 -7.981192 1.339294 -4.234997 0.974567 -6.221468 -1.543753 0.000000 0.000000 0.000000
10.091693 67.662064 335.194266 4.978501 -3.789656 70.164788 1.197870 0.953271 -69.798340 -0.636847 0.306152 0.190385 -4.897382 0.379967 -0.081800 0.000000 0.000000 0.000000 -13.721787 -5.552552 1.294775 17.838688 -12.172219 -10.025138 0.447402 14.284065 11.812803 -5.482041 -13.491827 -8.857606 0.000000 0.000000 0.000000 0.000000 0.000000 0.000000 -1.558696 -3.843930 -2.423919 2.800017 -0.768920 -0.308116 -1.362499 -18.637780 0.585207 7.649823 9.098990 -4.829621 0.000000 0.000000 0.000000 0.000000 0.000000 0.000000 2.072096 13.949923 -70.094031 6.178516 -1.938269 -0.735920 7.689546 5.505696 2.315799 0.000000 0.000000 0.000000 2.130576 2.393068 -69.622319 -14.980695 3.538802 -7.622989 1.863752 -11.911008 -3.252808 0.000000 0.000000 0.000000
11.487734 66.893574 336.206345 6.495673 -5.377942 75.038089 1.771980 0.960197 -74.484328 -0.785531 0.439471 0.261412 -6.575842 0.622598 -0.090546 0.000000 0.000000 0.000000 -18.102253 -7.760189 1.448255 23.460168 -18.466437 -14.391001 -2.477576 21.607355 16.162926 -6.960074 -21.079572 -11.499609 0.000000 0.000000 0.000000 0.000000 0.000000 0.000000 -2.039917 -5.450715 -3.376206 3.733689 -0.809565 -0.397559 1.155451 -38.558802 1.245891 9.335596 22.948471 -9.307324 0.000000 0.000000 0.000000 0.000000 0.000000 0.000000 4.690324 18.484690 -75.193803 8.552688 -2.133401 -0.908188 10.346020 6.795723 2.888732 0.000000 0.000000 0.000000 3.200273 2.243788 -74.203107 -20.784924 6.348464 -9.984839 2.782915 -16.719056 -4.557123 0.000000 0.000000 0.000000
12.454499 66.355458 337.180169 7.429688 -6.799307 77.035990 2.219727 0.807666 -76.319334 -0.831857 0.562757 0.315927 -7.782187 0.902278 -0.101141 0.000000 0.000000 0.000000 -20.570934 -9.318677 1.327469 26.856999 -24.106787 -17.849513 -7.119673 27.779976 20.316059 -7.641465 -28.069896 -13.198360 0.000000 0.000000 0.000000 0.000000 0.000000 0.000000 -2.343071 -6.810773 -4.176694 4.351831 -0.628012 -0.422959 7.946631 -60.651694 5.389698 9.899684 39.162502 -14.343244 0.000000 0.000000 0.000000 0.000000 0.000000 0.000000 6.742308 21.523375 -77.410692 10.295408 -1.736980 -0.988707 12.315058 7.118458 3.200041 0.000000 0.000000 0.000000 3.941216 1.509672 -75.903864 -25.354418 9.561746 -11.301468 3.827779 -20.569168 -5.017320 0.000000 0.000000 0.000000
